<svg xmlns="http://www.w3.org/2000/svg" version="1.1" xmlns:xlink="http://www.w3.org/1999/xlink" width="200" height="200"><svg xmlns="http://www.w3.org/2000/svg" version="1.1" xmlns:xlink="http://www.w3.org/1999/xlink" width="200" height="200"><svg xmlns="http://www.w3.org/2000/svg" version="1.1" xmlns:xlink="http://www.w3.org/1999/xlink" viewBox="0 0 200 200"><rect width="200" height="200" fill="url('#gradient')"></rect><defs><linearGradient id="gradient" gradientTransform="rotate(45 0.5 0.5)"><stop offset="0%" stop-color="#328c78"></stop><stop offset="100%" stop-color="#28819e"></stop></linearGradient></defs><g><g fill="#f6ebbc" transform="matrix(4.10055617352614,0,0,4.10055617352614,10.116866915808103,129.15921262023977)" stroke="#dba545" stroke-width="0.2"><path d="M9.98 0L9.15-2.66L4.45-2.66L3.63 0L-0.03 0L5.19-14.22L8.41-14.22L13.66 0L9.98 0ZM6.80-10.23L5.27-5.30L8.33-5.30L6.80-10.23ZM14.70-14.22L19.20-14.22L22.37-4.33L25.54-14.22L30.05-14.22L30.05 0L26.61 0L26.61-3.32L26.94-10.12L23.51 0L21.24 0L17.79-10.13L18.13-3.32L18.13 0L14.70 0L14.70-14.22ZM43.87-7.60L43.87-1.76Q43.08-0.88 41.55-0.34Q40.03 0.20 38.21 0.20L38.21 0.20Q35.42 0.20 33.75-1.51Q32.08-3.22 31.96-6.27L31.96-6.27L31.95-7.50Q31.95-9.60 32.70-11.17Q33.44-12.73 34.82-13.58Q36.20-14.42 38.02-14.42L38.02-14.42Q40.67-14.42 42.14-13.21Q43.61-11.99 43.86-9.58L43.86-9.58L40.56-9.58Q40.38-10.77 39.79-11.28Q39.21-11.79 38.13-11.79L38.13-11.79Q36.85-11.79 36.14-10.69Q35.44-9.60 35.43-7.57L35.43-7.57L35.43-6.71Q35.43-4.58 36.16-3.51Q36.88-2.44 38.45-2.44L38.45-2.44Q39.79-2.44 40.44-3.04L40.44-3.04L40.44-5.24L38.06-5.24L38.06-7.60L43.87-7.60Z"></path></g></g></svg></svg><style>@media (prefers-color-scheme: light) { :root { filter: contrast(1) brightness(1); } }
@media (prefers-color-scheme: dark) { :root { filter: none; } }
</style></svg>